<?xml version="1.0" encoding="utf-8"?>
<!-- Generator: Adobe Illustrator 27.5.0, SVG Export Plug-In . SVG Version: 6.00 Build 0)  -->
<svg version="1.1" id="圖層_1" xmlns="http://www.w3.org/2000/svg" xmlns:xlink="http://www.w3.org/1999/xlink" x="0px" y="0px"
	 viewBox="0 0 878.74 878.74" style="enable-background:new 0 0 878.74 878.74;" xml:space="preserve">
<style type="text/css">
	.st0{stroke:#FFFFFF;stroke-miterlimit:10;}
	.st1{fill:#FFFFFF;stroke:#000000;stroke-width:14;stroke-miterlimit:10;}
</style>
<path class="st0" d="M726.89,448.35H312.07c-7.78,0-14.09-6.31-14.09-14.09v-4.89c0-7.78,6.31-14.09,14.09-14.09h414.82
	c7.78,0,14.09,6.31,14.09,14.09v4.89C740.98,442.04,734.67,448.35,726.89,448.35z"/>
<path class="st0" d="M734.96,567.13H219.22c-7.78,0-14.09-6.31-14.09-14.09v-4.89c0-7.78,6.31-14.09,14.09-14.09h515.73
	c7.78,0,14.09,6.31,14.09,14.09v4.89C749.05,560.82,742.74,567.13,734.96,567.13z"/>
<circle class="st1" cx="211.16" cy="435.99" r="48.89"/>
<circle class="st1" cx="253.02" cy="115.93" r="48.89"/>
<circle class="st1" cx="220.91" cy="729.35" r="48.89"/>
<path d="M236.69,548.68v96.85c0,7.43-6.02,13.45-13.45,13.45h-4.66c-7.43,0-13.45-6.02-13.45-13.45v-96.85
	c0-7.43,6.02-13.45,13.45-13.45h4.66C230.67,535.23,236.69,541.25,236.69,548.68z"/>
<path class="st0" d="M710.23,323.42H250.79c-7.78,0-14.09-6.31-14.09-14.09v-4.89c0-7.78,6.31-14.09,14.09-14.09h459.45
	c7.78,0,14.09,6.31,14.09,14.09v4.89C724.33,317.11,718.02,323.42,710.23,323.42z"/>
<path d="M268.8,210.77v96.85c0,7.43-6.02,13.45-13.45,13.45h-4.66c-7.43,0-13.45-6.02-13.45-13.45v-96.85
	c0-7.43,6.02-13.45,13.45-13.45h4.66C262.78,197.32,268.8,203.35,268.8,210.77z"/>
</svg>
